<svg xmlns="http://www.w3.org/2000/svg" viewBox="0 0 1600 1000" width="1600" height="1000">
<defs><radialGradient id="v" cx="50%" cy="45%" r="75%"><stop offset="0" stop-color="#0e141c"/><stop offset="1" stop-color="#05070a"/></radialGradient>
<pattern id="g" width="40" height="40" patternUnits="userSpaceOnUse"><path d="M40 0H0V40" fill="none" stroke="#111821" stroke-width="1"/></pattern></defs>
<rect width="1600" height="1000" fill="url(#v)"/><rect width="1600" height="1000" fill="url(#g)"/>
<rect x="110" y="150" width="19" height="19" fill="#8f86d6" opacity="0.40"/>
<rect x="132" y="150" width="19" height="19" fill="#8f86d6" opacity="0.15"/>
<rect x="154" y="150" width="19" height="19" fill="#8f86d6" opacity="0.10"/>
<rect x="176" y="150" width="19" height="19" fill="#8f86d6" opacity="0.07"/>
<rect x="198" y="150" width="19" height="19" fill="#8f86d6" opacity="0.05"/>
<rect x="220" y="150" width="19" height="19" fill="#8f86d6" opacity="0.06"/>
<rect x="242" y="150" width="19" height="19" fill="#8f86d6" opacity="0.24"/>
<rect x="264" y="150" width="19" height="19" fill="#e2584c" opacity="0.69"/>
<rect x="286" y="150" width="19" height="19" fill="#e2584c" opacity="0.86"/>
<rect x="308" y="150" width="19" height="19" fill="#8f86d6" opacity="0.18"/>
<rect x="330" y="150" width="19" height="19" fill="#8f86d6" opacity="0.17"/>
<rect x="352" y="150" width="19" height="19" fill="#8f86d6" opacity="0.23"/>
<rect x="374" y="150" width="19" height="19" fill="#8f86d6" opacity="0.07"/>
<rect x="396" y="150" width="19" height="19" fill="#8f86d6" opacity="0.19"/>
<rect x="418" y="150" width="19" height="19" fill="#8f86d6" opacity="0.06"/>
<rect x="440" y="150" width="19" height="19" fill="#8f86d6" opacity="0.10"/>
<rect x="462" y="150" width="19" height="19" fill="#8f86d6" opacity="0.23"/>
<rect x="484" y="150" width="19" height="19" fill="#8f86d6" opacity="0.18"/>
<rect x="506" y="150" width="19" height="19" fill="#8f86d6" opacity="0.06"/>
<rect x="528" y="150" width="19" height="19" fill="#8f86d6" opacity="0.39"/>
<rect x="550" y="150" width="19" height="19" fill="#8f86d6" opacity="0.16"/>
<rect x="572" y="150" width="19" height="19" fill="#8f86d6" opacity="0.13"/>
<rect x="594" y="150" width="19" height="19" fill="#8f86d6" opacity="0.05"/>
<rect x="616" y="150" width="19" height="19" fill="#8f86d6" opacity="0.12"/>
<rect x="110" y="172" width="19" height="19" fill="#8f86d6" opacity="0.06"/>
<rect x="132" y="172" width="19" height="19" fill="#8f86d6" opacity="0.17"/>
<rect x="154" y="172" width="19" height="19" fill="#8f86d6" opacity="0.09"/>
<rect x="176" y="172" width="19" height="19" fill="#8f86d6" opacity="0.27"/>
<rect x="198" y="172" width="19" height="19" fill="#8f86d6" opacity="0.16"/>
<rect x="220" y="172" width="19" height="19" fill="#8f86d6" opacity="0.25"/>
<rect x="242" y="172" width="19" height="19" fill="#8f86d6" opacity="0.07"/>
<rect x="264" y="172" width="19" height="19" fill="#e2584c" opacity="0.85"/>
<rect x="286" y="172" width="19" height="19" fill="#8f86d6" opacity="0.28"/>
<rect x="308" y="172" width="19" height="19" fill="#8f86d6" opacity="0.07"/>
<rect x="330" y="172" width="19" height="19" fill="#8f86d6" opacity="0.29"/>
<rect x="352" y="172" width="19" height="19" fill="#8f86d6" opacity="0.31"/>
<rect x="374" y="172" width="19" height="19" fill="#8f86d6" opacity="0.18"/>
<rect x="396" y="172" width="19" height="19" fill="#8f86d6" opacity="0.42"/>
<rect x="418" y="172" width="19" height="19" fill="#8f86d6" opacity="0.40"/>
<rect x="440" y="172" width="19" height="19" fill="#8f86d6" opacity="0.11"/>
<rect x="462" y="172" width="19" height="19" fill="#8f86d6" opacity="0.11"/>
<rect x="484" y="172" width="19" height="19" fill="#8f86d6" opacity="0.05"/>
<rect x="506" y="172" width="19" height="19" fill="#8f86d6" opacity="0.28"/>
<rect x="528" y="172" width="19" height="19" fill="#8f86d6" opacity="0.38"/>
<rect x="550" y="172" width="19" height="19" fill="#8f86d6" opacity="0.09"/>
<rect x="572" y="172" width="19" height="19" fill="#8f86d6" opacity="0.18"/>
<rect x="594" y="172" width="19" height="19" fill="#8f86d6" opacity="0.20"/>
<rect x="616" y="172" width="19" height="19" fill="#8f86d6" opacity="0.21"/>
<rect x="110" y="194" width="19" height="19" fill="#8f86d6" opacity="0.05"/>
<rect x="132" y="194" width="19" height="19" fill="#8f86d6" opacity="0.24"/>
<rect x="154" y="194" width="19" height="19" fill="#e2584c" opacity="0.82"/>
<rect x="176" y="194" width="19" height="19" fill="#8f86d6" opacity="0.08"/>
<rect x="198" y="194" width="19" height="19" fill="#8f86d6" opacity="0.15"/>
<rect x="220" y="194" width="19" height="19" fill="#8f86d6" opacity="0.24"/>
<rect x="242" y="194" width="19" height="19" fill="#8f86d6" opacity="0.15"/>
<rect x="264" y="194" width="19" height="19" fill="#e2584c" opacity="0.56"/>
<rect x="286" y="194" width="19" height="19" fill="#e2584c" opacity="0.73"/>
<rect x="308" y="194" width="19" height="19" fill="#e2584c" opacity="0.64"/>
<rect x="330" y="194" width="19" height="19" fill="#8f86d6" opacity="0.18"/>
<rect x="352" y="194" width="19" height="19" fill="#8f86d6" opacity="0.15"/>
<rect x="374" y="194" width="19" height="19" fill="#e2584c" opacity="0.74"/>
<rect x="396" y="194" width="19" height="19" fill="#e2584c" opacity="0.57"/>
<rect x="418" y="194" width="19" height="19" fill="#e2584c" opacity="0.68"/>
<rect x="440" y="194" width="19" height="19" fill="#8f86d6" opacity="0.05"/>
<rect x="462" y="194" width="19" height="19" fill="#8f86d6" opacity="0.05"/>
<rect x="484" y="194" width="19" height="19" fill="#e2584c" opacity="0.74"/>
<rect x="506" y="194" width="19" height="19" fill="#8f86d6" opacity="0.07"/>
<rect x="528" y="194" width="19" height="19" fill="#e2584c" opacity="0.79"/>
<rect x="550" y="194" width="19" height="19" fill="#8f86d6" opacity="0.06"/>
<rect x="572" y="194" width="19" height="19" fill="#e2584c" opacity="0.55"/>
<rect x="594" y="194" width="19" height="19" fill="#e2584c" opacity="0.66"/>
<rect x="616" y="194" width="19" height="19" fill="#8f86d6" opacity="0.08"/>
<rect x="110" y="216" width="19" height="19" fill="#8f86d6" opacity="0.05"/>
<rect x="132" y="216" width="19" height="19" fill="#8f86d6" opacity="0.28"/>
<rect x="154" y="216" width="19" height="19" fill="#8f86d6" opacity="0.07"/>
<rect x="176" y="216" width="19" height="19" fill="#8f86d6" opacity="0.05"/>
<rect x="198" y="216" width="19" height="19" fill="#8f86d6" opacity="0.14"/>
<rect x="220" y="216" width="19" height="19" fill="#8f86d6" opacity="0.05"/>
<rect x="242" y="216" width="19" height="19" fill="#8f86d6" opacity="0.11"/>
<rect x="264" y="216" width="19" height="19" fill="#e2584c" opacity="0.78"/>
<rect x="286" y="216" width="19" height="19" fill="#e2584c" opacity="0.88"/>
<rect x="308" y="216" width="19" height="19" fill="#8f86d6" opacity="0.08"/>
<rect x="330" y="216" width="19" height="19" fill="#8f86d6" opacity="0.26"/>
<rect x="352" y="216" width="19" height="19" fill="#8f86d6" opacity="0.16"/>
<rect x="374" y="216" width="19" height="19" fill="#8f86d6" opacity="0.07"/>
<rect x="396" y="216" width="19" height="19" fill="#8f86d6" opacity="0.05"/>
<rect x="418" y="216" width="19" height="19" fill="#8f86d6" opacity="0.13"/>
<rect x="440" y="216" width="19" height="19" fill="#8f86d6" opacity="0.12"/>
<rect x="462" y="216" width="19" height="19" fill="#8f86d6" opacity="0.40"/>
<rect x="484" y="216" width="19" height="19" fill="#8f86d6" opacity="0.41"/>
<rect x="506" y="216" width="19" height="19" fill="#8f86d6" opacity="0.14"/>
<rect x="528" y="216" width="19" height="19" fill="#8f86d6" opacity="0.07"/>
<rect x="550" y="216" width="19" height="19" fill="#8f86d6" opacity="0.34"/>
<rect x="572" y="216" width="19" height="19" fill="#8f86d6" opacity="0.05"/>
<rect x="594" y="216" width="19" height="19" fill="#8f86d6" opacity="0.05"/>
<rect x="616" y="216" width="19" height="19" fill="#8f86d6" opacity="0.12"/>
<rect x="110" y="238" width="19" height="19" fill="#8f86d6" opacity="0.14"/>
<rect x="132" y="238" width="19" height="19" fill="#8f86d6" opacity="0.05"/>
<rect x="154" y="238" width="19" height="19" fill="#8f86d6" opacity="0.15"/>
<rect x="176" y="238" width="19" height="19" fill="#8f86d6" opacity="0.33"/>
<rect x="198" y="238" width="19" height="19" fill="#8f86d6" opacity="0.07"/>
<rect x="220" y="238" width="19" height="19" fill="#8f86d6" opacity="0.08"/>
<rect x="242" y="238" width="19" height="19" fill="#8f86d6" opacity="0.05"/>
<rect x="264" y="238" width="19" height="19" fill="#8f86d6" opacity="0.06"/>
<rect x="286" y="238" width="19" height="19" fill="#8f86d6" opacity="0.42"/>
<rect x="308" y="238" width="19" height="19" fill="#8f86d6" opacity="0.07"/>
<rect x="330" y="238" width="19" height="19" fill="#8f86d6" opacity="0.41"/>
<rect x="352" y="238" width="19" height="19" fill="#8f86d6" opacity="0.36"/>
<rect x="374" y="238" width="19" height="19" fill="#8f86d6" opacity="0.13"/>
<rect x="396" y="238" width="19" height="19" fill="#8f86d6" opacity="0.06"/>
<rect x="418" y="238" width="19" height="19" fill="#8f86d6" opacity="0.43"/>
<rect x="440" y="238" width="19" height="19" fill="#8f86d6" opacity="0.10"/>
<rect x="462" y="238" width="19" height="19" fill="#8f86d6" opacity="0.08"/>
<rect x="484" y="238" width="19" height="19" fill="#8f86d6" opacity="0.06"/>
<rect x="506" y="238" width="19" height="19" fill="#8f86d6" opacity="0.43"/>
<rect x="528" y="238" width="19" height="19" fill="#8f86d6" opacity="0.10"/>
<rect x="550" y="238" width="19" height="19" fill="#8f86d6" opacity="0.06"/>
<rect x="572" y="238" width="19" height="19" fill="#8f86d6" opacity="0.09"/>
<rect x="594" y="238" width="19" height="19" fill="#8f86d6" opacity="0.05"/>
<rect x="616" y="238" width="19" height="19" fill="#8f86d6" opacity="0.15"/>
<rect x="110" y="260" width="19" height="19" fill="#8f86d6" opacity="0.08"/>
<rect x="132" y="260" width="19" height="19" fill="#8f86d6" opacity="0.06"/>
<rect x="154" y="260" width="19" height="19" fill="#8f86d6" opacity="0.24"/>
<rect x="176" y="260" width="19" height="19" fill="#8f86d6" opacity="0.28"/>
<rect x="198" y="260" width="19" height="19" fill="#8f86d6" opacity="0.05"/>
<rect x="220" y="260" width="19" height="19" fill="#8f86d6" opacity="0.11"/>
<rect x="242" y="260" width="19" height="19" fill="#8f86d6" opacity="0.06"/>
<rect x="264" y="260" width="19" height="19" fill="#e2584c" opacity="0.86"/>
<rect x="286" y="260" width="19" height="19" fill="#8f86d6" opacity="0.06"/>
<rect x="308" y="260" width="19" height="19" fill="#8f86d6" opacity="0.06"/>
<rect x="330" y="260" width="19" height="19" fill="#8f86d6" opacity="0.05"/>
<rect x="352" y="260" width="19" height="19" fill="#8f86d6" opacity="0.44"/>
<rect x="374" y="260" width="19" height="19" fill="#8f86d6" opacity="0.06"/>
<rect x="396" y="260" width="19" height="19" fill="#8f86d6" opacity="0.14"/>
<rect x="418" y="260" width="19" height="19" fill="#8f86d6" opacity="0.09"/>
<rect x="440" y="260" width="19" height="19" fill="#8f86d6" opacity="0.16"/>
<rect x="462" y="260" width="19" height="19" fill="#8f86d6" opacity="0.14"/>
<rect x="484" y="260" width="19" height="19" fill="#8f86d6" opacity="0.21"/>
<rect x="506" y="260" width="19" height="19" fill="#8f86d6" opacity="0.05"/>
<rect x="528" y="260" width="19" height="19" fill="#8f86d6" opacity="0.23"/>
<rect x="550" y="260" width="19" height="19" fill="#8f86d6" opacity="0.06"/>
<rect x="572" y="260" width="19" height="19" fill="#8f86d6" opacity="0.11"/>
<rect x="594" y="260" width="19" height="19" fill="#8f86d6" opacity="0.07"/>
<rect x="616" y="260" width="19" height="19" fill="#8f86d6" opacity="0.06"/>
<rect x="110" y="282" width="19" height="19" fill="#8f86d6" opacity="0.11"/>
<rect x="132" y="282" width="19" height="19" fill="#8f86d6" opacity="0.09"/>
<rect x="154" y="282" width="19" height="19" fill="#8f86d6" opacity="0.07"/>
<rect x="176" y="282" width="19" height="19" fill="#8f86d6" opacity="0.22"/>
<rect x="198" y="282" width="19" height="19" fill="#8f86d6" opacity="0.13"/>
<rect x="220" y="282" width="19" height="19" fill="#8f86d6" opacity="0.05"/>
<rect x="242" y="282" width="19" height="19" fill="#8f86d6" opacity="0.06"/>
<rect x="264" y="282" width="19" height="19" fill="#e2584c" opacity="0.92"/>
<rect x="286" y="282" width="19" height="19" fill="#e2584c" opacity="0.77"/>
<rect x="308" y="282" width="19" height="19" fill="#8f86d6" opacity="0.05"/>
<rect x="330" y="282" width="19" height="19" fill="#8f86d6" opacity="0.24"/>
<rect x="352" y="282" width="19" height="19" fill="#8f86d6" opacity="0.08"/>
<rect x="374" y="282" width="19" height="19" fill="#8f86d6" opacity="0.13"/>
<rect x="396" y="282" width="19" height="19" fill="#8f86d6" opacity="0.19"/>
<rect x="418" y="282" width="19" height="19" fill="#8f86d6" opacity="0.15"/>
<rect x="440" y="282" width="19" height="19" fill="#8f86d6" opacity="0.09"/>
<rect x="462" y="282" width="19" height="19" fill="#8f86d6" opacity="0.35"/>
<rect x="484" y="282" width="19" height="19" fill="#8f86d6" opacity="0.07"/>
<rect x="506" y="282" width="19" height="19" fill="#8f86d6" opacity="0.07"/>
<rect x="528" y="282" width="19" height="19" fill="#8f86d6" opacity="0.30"/>
<rect x="550" y="282" width="19" height="19" fill="#8f86d6" opacity="0.05"/>
<rect x="572" y="282" width="19" height="19" fill="#8f86d6" opacity="0.06"/>
<rect x="594" y="282" width="19" height="19" fill="#8f86d6" opacity="0.28"/>
<rect x="616" y="282" width="19" height="19" fill="#8f86d6" opacity="0.05"/>
<rect x="110" y="304" width="19" height="19" fill="#8f86d6" opacity="0.28"/>
<rect x="132" y="304" width="19" height="19" fill="#8f86d6" opacity="0.18"/>
<rect x="154" y="304" width="19" height="19" fill="#8f86d6" opacity="0.08"/>
<rect x="176" y="304" width="19" height="19" fill="#8f86d6" opacity="0.06"/>
<rect x="198" y="304" width="19" height="19" fill="#8f86d6" opacity="0.24"/>
<rect x="220" y="304" width="19" height="19" fill="#8f86d6" opacity="0.35"/>
<rect x="242" y="304" width="19" height="19" fill="#8f86d6" opacity="0.05"/>
<rect x="264" y="304" width="19" height="19" fill="#e2584c" opacity="0.77"/>
<rect x="286" y="304" width="19" height="19" fill="#8f86d6" opacity="0.10"/>
<rect x="308" y="304" width="19" height="19" fill="#8f86d6" opacity="0.06"/>
<rect x="330" y="304" width="19" height="19" fill="#8f86d6" opacity="0.05"/>
<rect x="352" y="304" width="19" height="19" fill="#8f86d6" opacity="0.13"/>
<rect x="374" y="304" width="19" height="19" fill="#8f86d6" opacity="0.26"/>
<rect x="396" y="304" width="19" height="19" fill="#8f86d6" opacity="0.05"/>
<rect x="418" y="304" width="19" height="19" fill="#8f86d6" opacity="0.05"/>
<rect x="440" y="304" width="19" height="19" fill="#8f86d6" opacity="0.27"/>
<rect x="462" y="304" width="19" height="19" fill="#8f86d6" opacity="0.25"/>
<rect x="484" y="304" width="19" height="19" fill="#8f86d6" opacity="0.17"/>
<rect x="506" y="304" width="19" height="19" fill="#8f86d6" opacity="0.05"/>
<rect x="528" y="304" width="19" height="19" fill="#8f86d6" opacity="0.20"/>
<rect x="550" y="304" width="19" height="19" fill="#8f86d6" opacity="0.42"/>
<rect x="572" y="304" width="19" height="19" fill="#8f86d6" opacity="0.45"/>
<rect x="594" y="304" width="19" height="19" fill="#8f86d6" opacity="0.19"/>
<rect x="616" y="304" width="19" height="19" fill="#8f86d6" opacity="0.05"/>
<rect x="110" y="326" width="19" height="19" fill="#8f86d6" opacity="0.29"/>
<rect x="132" y="326" width="19" height="19" fill="#8f86d6" opacity="0.05"/>
<rect x="154" y="326" width="19" height="19" fill="#8f86d6" opacity="0.16"/>
<rect x="176" y="326" width="19" height="19" fill="#e2584c" opacity="0.83"/>
<rect x="198" y="326" width="19" height="19" fill="#8f86d6" opacity="0.05"/>
<rect x="220" y="326" width="19" height="19" fill="#e2584c" opacity="0.92"/>
<rect x="242" y="326" width="19" height="19" fill="#e2584c" opacity="0.79"/>
<rect x="264" y="326" width="19" height="19" fill="#e2584c" opacity="0.61"/>
<rect x="286" y="326" width="19" height="19" fill="#e2584c" opacity="0.57"/>
<rect x="308" y="326" width="19" height="19" fill="#8f86d6" opacity="0.05"/>
<rect x="330" y="326" width="19" height="19" fill="#e2584c" opacity="0.58"/>
<rect x="352" y="326" width="19" height="19" fill="#8f86d6" opacity="0.05"/>
<rect x="374" y="326" width="19" height="19" fill="#e2584c" opacity="0.85"/>
<rect x="396" y="326" width="19" height="19" fill="#e2584c" opacity="0.60"/>
<rect x="418" y="326" width="19" height="19" fill="#8f86d6" opacity="0.08"/>
<rect x="440" y="326" width="19" height="19" fill="#8f86d6" opacity="0.06"/>
<rect x="462" y="326" width="19" height="19" fill="#e2584c" opacity="0.75"/>
<rect x="484" y="326" width="19" height="19" fill="#8f86d6" opacity="0.38"/>
<rect x="506" y="326" width="19" height="19" fill="#8f86d6" opacity="0.07"/>
<rect x="528" y="326" width="19" height="19" fill="#e2584c" opacity="0.83"/>
<rect x="550" y="326" width="19" height="19" fill="#8f86d6" opacity="0.05"/>
<rect x="572" y="326" width="19" height="19" fill="#e2584c" opacity="0.75"/>
<rect x="594" y="326" width="19" height="19" fill="#8f86d6" opacity="0.35"/>
<rect x="616" y="326" width="19" height="19" fill="#8f86d6" opacity="0.12"/>
<rect x="110" y="348" width="19" height="19" fill="#8f86d6" opacity="0.15"/>
<rect x="132" y="348" width="19" height="19" fill="#8f86d6" opacity="0.06"/>
<rect x="154" y="348" width="19" height="19" fill="#8f86d6" opacity="0.12"/>
<rect x="176" y="348" width="19" height="19" fill="#8f86d6" opacity="0.06"/>
<rect x="198" y="348" width="19" height="19" fill="#8f86d6" opacity="0.22"/>
<rect x="220" y="348" width="19" height="19" fill="#8f86d6" opacity="0.11"/>
<rect x="242" y="348" width="19" height="19" fill="#8f86d6" opacity="0.05"/>
<rect x="264" y="348" width="19" height="19" fill="#e2584c" opacity="0.70"/>
<rect x="286" y="348" width="19" height="19" fill="#e2584c" opacity="0.62"/>
<rect x="308" y="348" width="19" height="19" fill="#8f86d6" opacity="0.20"/>
<rect x="330" y="348" width="19" height="19" fill="#8f86d6" opacity="0.16"/>
<rect x="352" y="348" width="19" height="19" fill="#8f86d6" opacity="0.05"/>
<rect x="374" y="348" width="19" height="19" fill="#8f86d6" opacity="0.17"/>
<rect x="396" y="348" width="19" height="19" fill="#8f86d6" opacity="0.05"/>
<rect x="418" y="348" width="19" height="19" fill="#8f86d6" opacity="0.05"/>
<rect x="440" y="348" width="19" height="19" fill="#8f86d6" opacity="0.13"/>
<rect x="462" y="348" width="19" height="19" fill="#8f86d6" opacity="0.06"/>
<rect x="484" y="348" width="19" height="19" fill="#8f86d6" opacity="0.32"/>
<rect x="506" y="348" width="19" height="19" fill="#8f86d6" opacity="0.09"/>
<rect x="528" y="348" width="19" height="19" fill="#8f86d6" opacity="0.06"/>
<rect x="550" y="348" width="19" height="19" fill="#8f86d6" opacity="0.25"/>
<rect x="572" y="348" width="19" height="19" fill="#8f86d6" opacity="0.05"/>
<rect x="594" y="348" width="19" height="19" fill="#8f86d6" opacity="0.20"/>
<rect x="616" y="348" width="19" height="19" fill="#8f86d6" opacity="0.05"/>
<rect x="110" y="370" width="19" height="19" fill="#8f86d6" opacity="0.05"/>
<rect x="132" y="370" width="19" height="19" fill="#8f86d6" opacity="0.40"/>
<rect x="154" y="370" width="19" height="19" fill="#8f86d6" opacity="0.18"/>
<rect x="176" y="370" width="19" height="19" fill="#8f86d6" opacity="0.05"/>
<rect x="198" y="370" width="19" height="19" fill="#8f86d6" opacity="0.05"/>
<rect x="220" y="370" width="19" height="19" fill="#8f86d6" opacity="0.42"/>
<rect x="242" y="370" width="19" height="19" fill="#8f86d6" opacity="0.17"/>
<rect x="264" y="370" width="19" height="19" fill="#e2584c" opacity="0.61"/>
<rect x="286" y="370" width="19" height="19" fill="#e2584c" opacity="0.69"/>
<rect x="308" y="370" width="19" height="19" fill="#8f86d6" opacity="0.06"/>
<rect x="330" y="370" width="19" height="19" fill="#8f86d6" opacity="0.06"/>
<rect x="352" y="370" width="19" height="19" fill="#8f86d6" opacity="0.14"/>
<rect x="374" y="370" width="19" height="19" fill="#8f86d6" opacity="0.07"/>
<rect x="396" y="370" width="19" height="19" fill="#8f86d6" opacity="0.07"/>
<rect x="418" y="370" width="19" height="19" fill="#8f86d6" opacity="0.05"/>
<rect x="440" y="370" width="19" height="19" fill="#8f86d6" opacity="0.28"/>
<rect x="462" y="370" width="19" height="19" fill="#8f86d6" opacity="0.16"/>
<rect x="484" y="370" width="19" height="19" fill="#8f86d6" opacity="0.26"/>
<rect x="506" y="370" width="19" height="19" fill="#8f86d6" opacity="0.08"/>
<rect x="528" y="370" width="19" height="19" fill="#8f86d6" opacity="0.30"/>
<rect x="550" y="370" width="19" height="19" fill="#8f86d6" opacity="0.11"/>
<rect x="572" y="370" width="19" height="19" fill="#8f86d6" opacity="0.13"/>
<rect x="594" y="370" width="19" height="19" fill="#8f86d6" opacity="0.13"/>
<rect x="616" y="370" width="19" height="19" fill="#8f86d6" opacity="0.21"/>
<rect x="110" y="392" width="19" height="19" fill="#8f86d6" opacity="0.07"/>
<rect x="132" y="392" width="19" height="19" fill="#8f86d6" opacity="0.05"/>
<rect x="154" y="392" width="19" height="19" fill="#8f86d6" opacity="0.05"/>
<rect x="176" y="392" width="19" height="19" fill="#8f86d6" opacity="0.05"/>
<rect x="198" y="392" width="19" height="19" fill="#8f86d6" opacity="0.05"/>
<rect x="220" y="392" width="19" height="19" fill="#8f86d6" opacity="0.33"/>
<rect x="242" y="392" width="19" height="19" fill="#8f86d6" opacity="0.09"/>
<rect x="264" y="392" width="19" height="19" fill="#e2584c" opacity="0.55"/>
<rect x="286" y="392" width="19" height="19" fill="#e2584c" opacity="0.91"/>
<rect x="308" y="392" width="19" height="19" fill="#8f86d6" opacity="0.15"/>
<rect x="330" y="392" width="19" height="19" fill="#8f86d6" opacity="0.08"/>
<rect x="352" y="392" width="19" height="19" fill="#8f86d6" opacity="0.09"/>
<rect x="374" y="392" width="19" height="19" fill="#8f86d6" opacity="0.05"/>
<rect x="396" y="392" width="19" height="19" fill="#8f86d6" opacity="0.05"/>
<rect x="418" y="392" width="19" height="19" fill="#8f86d6" opacity="0.05"/>
<rect x="440" y="392" width="19" height="19" fill="#8f86d6" opacity="0.07"/>
<rect x="462" y="392" width="19" height="19" fill="#8f86d6" opacity="0.07"/>
<rect x="484" y="392" width="19" height="19" fill="#8f86d6" opacity="0.32"/>
<rect x="506" y="392" width="19" height="19" fill="#8f86d6" opacity="0.05"/>
<rect x="528" y="392" width="19" height="19" fill="#8f86d6" opacity="0.06"/>
<rect x="550" y="392" width="19" height="19" fill="#8f86d6" opacity="0.06"/>
<rect x="572" y="392" width="19" height="19" fill="#8f86d6" opacity="0.05"/>
<rect x="594" y="392" width="19" height="19" fill="#8f86d6" opacity="0.06"/>
<rect x="616" y="392" width="19" height="19" fill="#8f86d6" opacity="0.06"/>
<rect x="110" y="414" width="19" height="19" fill="#8f86d6" opacity="0.09"/>
<rect x="132" y="414" width="19" height="19" fill="#8f86d6" opacity="0.05"/>
<rect x="154" y="414" width="19" height="19" fill="#8f86d6" opacity="0.37"/>
<rect x="176" y="414" width="19" height="19" fill="#8f86d6" opacity="0.07"/>
<rect x="198" y="414" width="19" height="19" fill="#8f86d6" opacity="0.38"/>
<rect x="220" y="414" width="19" height="19" fill="#8f86d6" opacity="0.18"/>
<rect x="242" y="414" width="19" height="19" fill="#8f86d6" opacity="0.17"/>
<rect x="264" y="414" width="19" height="19" fill="#e2584c" opacity="0.93"/>
<rect x="286" y="414" width="19" height="19" fill="#8f86d6" opacity="0.05"/>
<rect x="308" y="414" width="19" height="19" fill="#8f86d6" opacity="0.17"/>
<rect x="330" y="414" width="19" height="19" fill="#8f86d6" opacity="0.06"/>
<rect x="352" y="414" width="19" height="19" fill="#8f86d6" opacity="0.17"/>
<rect x="374" y="414" width="19" height="19" fill="#8f86d6" opacity="0.21"/>
<rect x="396" y="414" width="19" height="19" fill="#8f86d6" opacity="0.05"/>
<rect x="418" y="414" width="19" height="19" fill="#8f86d6" opacity="0.05"/>
<rect x="440" y="414" width="19" height="19" fill="#8f86d6" opacity="0.05"/>
<rect x="462" y="414" width="19" height="19" fill="#8f86d6" opacity="0.05"/>
<rect x="484" y="414" width="19" height="19" fill="#8f86d6" opacity="0.05"/>
<rect x="506" y="414" width="19" height="19" fill="#8f86d6" opacity="0.08"/>
<rect x="528" y="414" width="19" height="19" fill="#8f86d6" opacity="0.42"/>
<rect x="550" y="414" width="19" height="19" fill="#8f86d6" opacity="0.07"/>
<rect x="572" y="414" width="19" height="19" fill="#8f86d6" opacity="0.06"/>
<rect x="594" y="414" width="19" height="19" fill="#8f86d6" opacity="0.09"/>
<rect x="616" y="414" width="19" height="19" fill="#8f86d6" opacity="0.06"/>
<rect x="110" y="436" width="19" height="19" fill="#8f86d6" opacity="0.21"/>
<rect x="132" y="436" width="19" height="19" fill="#8f86d6" opacity="0.20"/>
<rect x="154" y="436" width="19" height="19" fill="#8f86d6" opacity="0.05"/>
<rect x="176" y="436" width="19" height="19" fill="#8f86d6" opacity="0.06"/>
<rect x="198" y="436" width="19" height="19" fill="#8f86d6" opacity="0.17"/>
<rect x="220" y="436" width="19" height="19" fill="#8f86d6" opacity="0.38"/>
<rect x="242" y="436" width="19" height="19" fill="#8f86d6" opacity="0.16"/>
<rect x="264" y="436" width="19" height="19" fill="#e2584c" opacity="0.94"/>
<rect x="286" y="436" width="19" height="19" fill="#e2584c" opacity="0.57"/>
<rect x="308" y="436" width="19" height="19" fill="#8f86d6" opacity="0.24"/>
<rect x="330" y="436" width="19" height="19" fill="#8f86d6" opacity="0.08"/>
<rect x="352" y="436" width="19" height="19" fill="#8f86d6" opacity="0.05"/>
<rect x="374" y="436" width="19" height="19" fill="#8f86d6" opacity="0.12"/>
<rect x="396" y="436" width="19" height="19" fill="#8f86d6" opacity="0.44"/>
<rect x="418" y="436" width="19" height="19" fill="#8f86d6" opacity="0.11"/>
<rect x="440" y="436" width="19" height="19" fill="#8f86d6" opacity="0.07"/>
<rect x="462" y="436" width="19" height="19" fill="#8f86d6" opacity="0.05"/>
<rect x="484" y="436" width="19" height="19" fill="#8f86d6" opacity="0.05"/>
<rect x="506" y="436" width="19" height="19" fill="#8f86d6" opacity="0.34"/>
<rect x="528" y="436" width="19" height="19" fill="#8f86d6" opacity="0.10"/>
<rect x="550" y="436" width="19" height="19" fill="#8f86d6" opacity="0.38"/>
<rect x="572" y="436" width="19" height="19" fill="#8f86d6" opacity="0.05"/>
<rect x="594" y="436" width="19" height="19" fill="#8f86d6" opacity="0.06"/>
<rect x="616" y="436" width="19" height="19" fill="#8f86d6" opacity="0.05"/>
<rect x="110" y="458" width="19" height="19" fill="#8f86d6" opacity="0.08"/>
<rect x="132" y="458" width="19" height="19" fill="#8f86d6" opacity="0.05"/>
<rect x="154" y="458" width="19" height="19" fill="#e2584c" opacity="0.71"/>
<rect x="176" y="458" width="19" height="19" fill="#8f86d6" opacity="0.06"/>
<rect x="198" y="458" width="19" height="19" fill="#8f86d6" opacity="0.05"/>
<rect x="220" y="458" width="19" height="19" fill="#8f86d6" opacity="0.05"/>
<rect x="242" y="458" width="19" height="19" fill="#e2584c" opacity="0.62"/>
<rect x="264" y="458" width="19" height="19" fill="#e2584c" opacity="0.71"/>
<rect x="286" y="458" width="19" height="19" fill="#e2584c" opacity="0.58"/>
<rect x="308" y="458" width="19" height="19" fill="#8f86d6" opacity="0.06"/>
<rect x="330" y="458" width="19" height="19" fill="#e2584c" opacity="0.77"/>
<rect x="352" y="458" width="19" height="19" fill="#8f86d6" opacity="0.36"/>
<rect x="374" y="458" width="19" height="19" fill="#e2584c" opacity="0.89"/>
<rect x="396" y="458" width="19" height="19" fill="#e2584c" opacity="0.56"/>
<rect x="418" y="458" width="19" height="19" fill="#8f86d6" opacity="0.11"/>
<rect x="440" y="458" width="19" height="19" fill="#8f86d6" opacity="0.10"/>
<rect x="462" y="458" width="19" height="19" fill="#e2584c" opacity="0.70"/>
<rect x="484" y="458" width="19" height="19" fill="#8f86d6" opacity="0.15"/>
<rect x="506" y="458" width="19" height="19" fill="#8f86d6" opacity="0.20"/>
<rect x="528" y="458" width="19" height="19" fill="#e2584c" opacity="0.67"/>
<rect x="550" y="458" width="19" height="19" fill="#e2584c" opacity="0.88"/>
<rect x="572" y="458" width="19" height="19" fill="#e2584c" opacity="0.60"/>
<rect x="594" y="458" width="19" height="19" fill="#e2584c" opacity="0.59"/>
<rect x="616" y="458" width="19" height="19" fill="#e2584c" opacity="0.88"/>
<rect x="110" y="480" width="19" height="19" fill="#8f86d6" opacity="0.06"/>
<rect x="132" y="480" width="19" height="19" fill="#8f86d6" opacity="0.05"/>
<rect x="154" y="480" width="19" height="19" fill="#8f86d6" opacity="0.05"/>
<rect x="176" y="480" width="19" height="19" fill="#8f86d6" opacity="0.06"/>
<rect x="198" y="480" width="19" height="19" fill="#8f86d6" opacity="0.05"/>
<rect x="220" y="480" width="19" height="19" fill="#8f86d6" opacity="0.08"/>
<rect x="242" y="480" width="19" height="19" fill="#8f86d6" opacity="0.13"/>
<rect x="264" y="480" width="19" height="19" fill="#e2584c" opacity="0.57"/>
<rect x="286" y="480" width="19" height="19" fill="#8f86d6" opacity="0.19"/>
<rect x="308" y="480" width="19" height="19" fill="#8f86d6" opacity="0.05"/>
<rect x="330" y="480" width="19" height="19" fill="#8f86d6" opacity="0.05"/>
<rect x="352" y="480" width="19" height="19" fill="#8f86d6" opacity="0.06"/>
<rect x="374" y="480" width="19" height="19" fill="#8f86d6" opacity="0.07"/>
<rect x="396" y="480" width="19" height="19" fill="#8f86d6" opacity="0.05"/>
<rect x="418" y="480" width="19" height="19" fill="#8f86d6" opacity="0.08"/>
<rect x="440" y="480" width="19" height="19" fill="#8f86d6" opacity="0.06"/>
<rect x="462" y="480" width="19" height="19" fill="#8f86d6" opacity="0.22"/>
<rect x="484" y="480" width="19" height="19" fill="#8f86d6" opacity="0.12"/>
<rect x="506" y="480" width="19" height="19" fill="#8f86d6" opacity="0.34"/>
<rect x="528" y="480" width="19" height="19" fill="#8f86d6" opacity="0.16"/>
<rect x="550" y="480" width="19" height="19" fill="#8f86d6" opacity="0.23"/>
<rect x="572" y="480" width="19" height="19" fill="#8f86d6" opacity="0.13"/>
<rect x="594" y="480" width="19" height="19" fill="#8f86d6" opacity="0.08"/>
<rect x="616" y="480" width="19" height="19" fill="#8f86d6" opacity="0.27"/>
<rect x="110" y="502" width="19" height="19" fill="#8f86d6" opacity="0.16"/>
<rect x="132" y="502" width="19" height="19" fill="#8f86d6" opacity="0.40"/>
<rect x="154" y="502" width="19" height="19" fill="#8f86d6" opacity="0.20"/>
<rect x="176" y="502" width="19" height="19" fill="#8f86d6" opacity="0.19"/>
<rect x="198" y="502" width="19" height="19" fill="#8f86d6" opacity="0.06"/>
<rect x="220" y="502" width="19" height="19" fill="#8f86d6" opacity="0.26"/>
<rect x="242" y="502" width="19" height="19" fill="#8f86d6" opacity="0.07"/>
<rect x="264" y="502" width="19" height="19" fill="#e2584c" opacity="0.58"/>
<rect x="286" y="502" width="19" height="19" fill="#e2584c" opacity="0.66"/>
<rect x="308" y="502" width="19" height="19" fill="#8f86d6" opacity="0.17"/>
<rect x="330" y="502" width="19" height="19" fill="#8f86d6" opacity="0.06"/>
<rect x="352" y="502" width="19" height="19" fill="#8f86d6" opacity="0.05"/>
<rect x="374" y="502" width="19" height="19" fill="#8f86d6" opacity="0.23"/>
<rect x="396" y="502" width="19" height="19" fill="#8f86d6" opacity="0.12"/>
<rect x="418" y="502" width="19" height="19" fill="#8f86d6" opacity="0.05"/>
<rect x="440" y="502" width="19" height="19" fill="#8f86d6" opacity="0.05"/>
<rect x="462" y="502" width="19" height="19" fill="#8f86d6" opacity="0.05"/>
<rect x="484" y="502" width="19" height="19" fill="#8f86d6" opacity="0.07"/>
<rect x="506" y="502" width="19" height="19" fill="#8f86d6" opacity="0.30"/>
<rect x="528" y="502" width="19" height="19" fill="#8f86d6" opacity="0.39"/>
<rect x="550" y="502" width="19" height="19" fill="#8f86d6" opacity="0.14"/>
<rect x="572" y="502" width="19" height="19" fill="#8f86d6" opacity="0.05"/>
<rect x="594" y="502" width="19" height="19" fill="#8f86d6" opacity="0.08"/>
<rect x="616" y="502" width="19" height="19" fill="#8f86d6" opacity="0.07"/>
<rect x="110" y="524" width="19" height="19" fill="#8f86d6" opacity="0.06"/>
<rect x="132" y="524" width="19" height="19" fill="#8f86d6" opacity="0.05"/>
<rect x="154" y="524" width="19" height="19" fill="#8f86d6" opacity="0.13"/>
<rect x="176" y="524" width="19" height="19" fill="#8f86d6" opacity="0.28"/>
<rect x="198" y="524" width="19" height="19" fill="#8f86d6" opacity="0.20"/>
<rect x="220" y="524" width="19" height="19" fill="#8f86d6" opacity="0.05"/>
<rect x="242" y="524" width="19" height="19" fill="#8f86d6" opacity="0.11"/>
<rect x="264" y="524" width="19" height="19" fill="#8f86d6" opacity="0.05"/>
<rect x="286" y="524" width="19" height="19" fill="#e2584c" opacity="0.73"/>
<rect x="308" y="524" width="19" height="19" fill="#8f86d6" opacity="0.38"/>
<rect x="330" y="524" width="19" height="19" fill="#8f86d6" opacity="0.25"/>
<rect x="352" y="524" width="19" height="19" fill="#8f86d6" opacity="0.05"/>
<rect x="374" y="524" width="19" height="19" fill="#8f86d6" opacity="0.06"/>
<rect x="396" y="524" width="19" height="19" fill="#8f86d6" opacity="0.36"/>
<rect x="418" y="524" width="19" height="19" fill="#8f86d6" opacity="0.09"/>
<rect x="440" y="524" width="19" height="19" fill="#8f86d6" opacity="0.08"/>
<rect x="462" y="524" width="19" height="19" fill="#8f86d6" opacity="0.08"/>
<rect x="484" y="524" width="19" height="19" fill="#8f86d6" opacity="0.23"/>
<rect x="506" y="524" width="19" height="19" fill="#8f86d6" opacity="0.38"/>
<rect x="528" y="524" width="19" height="19" fill="#8f86d6" opacity="0.11"/>
<rect x="550" y="524" width="19" height="19" fill="#8f86d6" opacity="0.41"/>
<rect x="572" y="524" width="19" height="19" fill="#8f86d6" opacity="0.13"/>
<rect x="594" y="524" width="19" height="19" fill="#8f86d6" opacity="0.05"/>
<rect x="616" y="524" width="19" height="19" fill="#8f86d6" opacity="0.27"/>
<rect x="110" y="546" width="19" height="19" fill="#8f86d6" opacity="0.08"/>
<rect x="132" y="546" width="19" height="19" fill="#8f86d6" opacity="0.05"/>
<rect x="154" y="546" width="19" height="19" fill="#8f86d6" opacity="0.42"/>
<rect x="176" y="546" width="19" height="19" fill="#8f86d6" opacity="0.05"/>
<rect x="198" y="546" width="19" height="19" fill="#8f86d6" opacity="0.13"/>
<rect x="220" y="546" width="19" height="19" fill="#8f86d6" opacity="0.09"/>
<rect x="242" y="546" width="19" height="19" fill="#8f86d6" opacity="0.32"/>
<rect x="264" y="546" width="19" height="19" fill="#e2584c" opacity="0.64"/>
<rect x="286" y="546" width="19" height="19" fill="#e2584c" opacity="0.63"/>
<rect x="308" y="546" width="19" height="19" fill="#8f86d6" opacity="0.12"/>
<rect x="330" y="546" width="19" height="19" fill="#8f86d6" opacity="0.07"/>
<rect x="352" y="546" width="19" height="19" fill="#8f86d6" opacity="0.22"/>
<rect x="374" y="546" width="19" height="19" fill="#8f86d6" opacity="0.06"/>
<rect x="396" y="546" width="19" height="19" fill="#8f86d6" opacity="0.07"/>
<rect x="418" y="546" width="19" height="19" fill="#8f86d6" opacity="0.06"/>
<rect x="440" y="546" width="19" height="19" fill="#8f86d6" opacity="0.43"/>
<rect x="462" y="546" width="19" height="19" fill="#8f86d6" opacity="0.29"/>
<rect x="484" y="546" width="19" height="19" fill="#8f86d6" opacity="0.30"/>
<rect x="506" y="546" width="19" height="19" fill="#8f86d6" opacity="0.14"/>
<rect x="528" y="546" width="19" height="19" fill="#8f86d6" opacity="0.08"/>
<rect x="550" y="546" width="19" height="19" fill="#8f86d6" opacity="0.05"/>
<rect x="572" y="546" width="19" height="19" fill="#8f86d6" opacity="0.28"/>
<rect x="594" y="546" width="19" height="19" fill="#8f86d6" opacity="0.10"/>
<rect x="616" y="546" width="19" height="19" fill="#8f86d6" opacity="0.05"/>
<rect x="110" y="568" width="19" height="19" fill="#8f86d6" opacity="0.05"/>
<rect x="132" y="568" width="19" height="19" fill="#8f86d6" opacity="0.05"/>
<rect x="154" y="568" width="19" height="19" fill="#8f86d6" opacity="0.20"/>
<rect x="176" y="568" width="19" height="19" fill="#8f86d6" opacity="0.34"/>
<rect x="198" y="568" width="19" height="19" fill="#8f86d6" opacity="0.05"/>
<rect x="220" y="568" width="19" height="19" fill="#8f86d6" opacity="0.25"/>
<rect x="242" y="568" width="19" height="19" fill="#8f86d6" opacity="0.06"/>
<rect x="264" y="568" width="19" height="19" fill="#e2584c" opacity="0.90"/>
<rect x="286" y="568" width="19" height="19" fill="#e2584c" opacity="0.87"/>
<rect x="308" y="568" width="19" height="19" fill="#8f86d6" opacity="0.07"/>
<rect x="330" y="568" width="19" height="19" fill="#8f86d6" opacity="0.05"/>
<rect x="352" y="568" width="19" height="19" fill="#8f86d6" opacity="0.10"/>
<rect x="374" y="568" width="19" height="19" fill="#8f86d6" opacity="0.13"/>
<rect x="396" y="568" width="19" height="19" fill="#8f86d6" opacity="0.05"/>
<rect x="418" y="568" width="19" height="19" fill="#8f86d6" opacity="0.07"/>
<rect x="440" y="568" width="19" height="19" fill="#8f86d6" opacity="0.06"/>
<rect x="462" y="568" width="19" height="19" fill="#8f86d6" opacity="0.05"/>
<rect x="484" y="568" width="19" height="19" fill="#8f86d6" opacity="0.06"/>
<rect x="506" y="568" width="19" height="19" fill="#8f86d6" opacity="0.07"/>
<rect x="528" y="568" width="19" height="19" fill="#8f86d6" opacity="0.09"/>
<rect x="550" y="568" width="19" height="19" fill="#8f86d6" opacity="0.19"/>
<rect x="572" y="568" width="19" height="19" fill="#8f86d6" opacity="0.08"/>
<rect x="594" y="568" width="19" height="19" fill="#8f86d6" opacity="0.43"/>
<rect x="616" y="568" width="19" height="19" fill="#8f86d6" opacity="0.27"/>
<rect x="110" y="590" width="19" height="19" fill="#8f86d6" opacity="0.37"/>
<rect x="132" y="590" width="19" height="19" fill="#8f86d6" opacity="0.18"/>
<rect x="154" y="590" width="19" height="19" fill="#e2584c" opacity="0.76"/>
<rect x="176" y="590" width="19" height="19" fill="#8f86d6" opacity="0.25"/>
<rect x="198" y="590" width="19" height="19" fill="#e2584c" opacity="0.79"/>
<rect x="220" y="590" width="19" height="19" fill="#8f86d6" opacity="0.18"/>
<rect x="242" y="590" width="19" height="19" fill="#8f86d6" opacity="0.11"/>
<rect x="264" y="590" width="19" height="19" fill="#e2584c" opacity="0.58"/>
<rect x="286" y="590" width="19" height="19" fill="#e2584c" opacity="0.69"/>
<rect x="308" y="590" width="19" height="19" fill="#8f86d6" opacity="0.13"/>
<rect x="330" y="590" width="19" height="19" fill="#8f86d6" opacity="0.23"/>
<rect x="352" y="590" width="19" height="19" fill="#8f86d6" opacity="0.20"/>
<rect x="374" y="590" width="19" height="19" fill="#e2584c" opacity="0.92"/>
<rect x="396" y="590" width="19" height="19" fill="#8f86d6" opacity="0.06"/>
<rect x="418" y="590" width="19" height="19" fill="#e2584c" opacity="0.58"/>
<rect x="440" y="590" width="19" height="19" fill="#8f86d6" opacity="0.22"/>
<rect x="462" y="590" width="19" height="19" fill="#e2584c" opacity="0.93"/>
<rect x="484" y="590" width="19" height="19" fill="#8f86d6" opacity="0.34"/>
<rect x="506" y="590" width="19" height="19" fill="#8f86d6" opacity="0.18"/>
<rect x="528" y="590" width="19" height="19" fill="#8f86d6" opacity="0.29"/>
<rect x="550" y="590" width="19" height="19" fill="#8f86d6" opacity="0.21"/>
<rect x="572" y="590" width="19" height="19" fill="#8f86d6" opacity="0.14"/>
<rect x="594" y="590" width="19" height="19" fill="#8f86d6" opacity="0.05"/>
<rect x="616" y="590" width="19" height="19" fill="#8f86d6" opacity="0.11"/>
<rect x="110" y="612" width="19" height="19" fill="#8f86d6" opacity="0.34"/>
<rect x="132" y="612" width="19" height="19" fill="#8f86d6" opacity="0.06"/>
<rect x="154" y="612" width="19" height="19" fill="#8f86d6" opacity="0.42"/>
<rect x="176" y="612" width="19" height="19" fill="#8f86d6" opacity="0.11"/>
<rect x="198" y="612" width="19" height="19" fill="#8f86d6" opacity="0.07"/>
<rect x="220" y="612" width="19" height="19" fill="#8f86d6" opacity="0.05"/>
<rect x="242" y="612" width="19" height="19" fill="#8f86d6" opacity="0.07"/>
<rect x="264" y="612" width="19" height="19" fill="#e2584c" opacity="0.81"/>
<rect x="286" y="612" width="19" height="19" fill="#e2584c" opacity="0.91"/>
<rect x="308" y="612" width="19" height="19" fill="#8f86d6" opacity="0.14"/>
<rect x="330" y="612" width="19" height="19" fill="#8f86d6" opacity="0.07"/>
<rect x="352" y="612" width="19" height="19" fill="#8f86d6" opacity="0.05"/>
<rect x="374" y="612" width="19" height="19" fill="#8f86d6" opacity="0.18"/>
<rect x="396" y="612" width="19" height="19" fill="#8f86d6" opacity="0.12"/>
<rect x="418" y="612" width="19" height="19" fill="#8f86d6" opacity="0.20"/>
<rect x="440" y="612" width="19" height="19" fill="#8f86d6" opacity="0.07"/>
<rect x="462" y="612" width="19" height="19" fill="#8f86d6" opacity="0.33"/>
<rect x="484" y="612" width="19" height="19" fill="#8f86d6" opacity="0.05"/>
<rect x="506" y="612" width="19" height="19" fill="#8f86d6" opacity="0.06"/>
<rect x="528" y="612" width="19" height="19" fill="#8f86d6" opacity="0.06"/>
<rect x="550" y="612" width="19" height="19" fill="#8f86d6" opacity="0.15"/>
<rect x="572" y="612" width="19" height="19" fill="#8f86d6" opacity="0.34"/>
<rect x="594" y="612" width="19" height="19" fill="#8f86d6" opacity="0.05"/>
<rect x="616" y="612" width="19" height="19" fill="#8f86d6" opacity="0.15"/>
<rect x="110" y="634" width="19" height="19" fill="#8f86d6" opacity="0.23"/>
<rect x="132" y="634" width="19" height="19" fill="#8f86d6" opacity="0.05"/>
<rect x="154" y="634" width="19" height="19" fill="#8f86d6" opacity="0.05"/>
<rect x="176" y="634" width="19" height="19" fill="#8f86d6" opacity="0.12"/>
<rect x="198" y="634" width="19" height="19" fill="#8f86d6" opacity="0.28"/>
<rect x="220" y="634" width="19" height="19" fill="#8f86d6" opacity="0.32"/>
<rect x="242" y="634" width="19" height="19" fill="#8f86d6" opacity="0.20"/>
<rect x="264" y="634" width="19" height="19" fill="#e2584c" opacity="0.72"/>
<rect x="286" y="634" width="19" height="19" fill="#e2584c" opacity="0.91"/>
<rect x="308" y="634" width="19" height="19" fill="#8f86d6" opacity="0.06"/>
<rect x="330" y="634" width="19" height="19" fill="#8f86d6" opacity="0.06"/>
<rect x="352" y="634" width="19" height="19" fill="#8f86d6" opacity="0.14"/>
<rect x="374" y="634" width="19" height="19" fill="#8f86d6" opacity="0.41"/>
<rect x="396" y="634" width="19" height="19" fill="#8f86d6" opacity="0.05"/>
<rect x="418" y="634" width="19" height="19" fill="#8f86d6" opacity="0.05"/>
<rect x="440" y="634" width="19" height="19" fill="#8f86d6" opacity="0.05"/>
<rect x="462" y="634" width="19" height="19" fill="#8f86d6" opacity="0.12"/>
<rect x="484" y="634" width="19" height="19" fill="#8f86d6" opacity="0.14"/>
<rect x="506" y="634" width="19" height="19" fill="#8f86d6" opacity="0.05"/>
<rect x="528" y="634" width="19" height="19" fill="#8f86d6" opacity="0.05"/>
<rect x="550" y="634" width="19" height="19" fill="#8f86d6" opacity="0.13"/>
<rect x="572" y="634" width="19" height="19" fill="#8f86d6" opacity="0.16"/>
<rect x="594" y="634" width="19" height="19" fill="#8f86d6" opacity="0.18"/>
<rect x="616" y="634" width="19" height="19" fill="#8f86d6" opacity="0.20"/>
<rect x="110" y="656" width="19" height="19" fill="#8f86d6" opacity="0.05"/>
<rect x="132" y="656" width="19" height="19" fill="#8f86d6" opacity="0.10"/>
<rect x="154" y="656" width="19" height="19" fill="#8f86d6" opacity="0.28"/>
<rect x="176" y="656" width="19" height="19" fill="#8f86d6" opacity="0.40"/>
<rect x="198" y="656" width="19" height="19" fill="#8f86d6" opacity="0.06"/>
<rect x="220" y="656" width="19" height="19" fill="#8f86d6" opacity="0.30"/>
<rect x="242" y="656" width="19" height="19" fill="#8f86d6" opacity="0.16"/>
<rect x="264" y="656" width="19" height="19" fill="#e2584c" opacity="0.64"/>
<rect x="286" y="656" width="19" height="19" fill="#8f86d6" opacity="0.19"/>
<rect x="308" y="656" width="19" height="19" fill="#8f86d6" opacity="0.29"/>
<rect x="330" y="656" width="19" height="19" fill="#8f86d6" opacity="0.09"/>
<rect x="352" y="656" width="19" height="19" fill="#8f86d6" opacity="0.05"/>
<rect x="374" y="656" width="19" height="19" fill="#8f86d6" opacity="0.05"/>
<rect x="396" y="656" width="19" height="19" fill="#8f86d6" opacity="0.05"/>
<rect x="418" y="656" width="19" height="19" fill="#8f86d6" opacity="0.05"/>
<rect x="440" y="656" width="19" height="19" fill="#8f86d6" opacity="0.05"/>
<rect x="462" y="656" width="19" height="19" fill="#8f86d6" opacity="0.14"/>
<rect x="484" y="656" width="19" height="19" fill="#8f86d6" opacity="0.05"/>
<rect x="506" y="656" width="19" height="19" fill="#8f86d6" opacity="0.22"/>
<rect x="528" y="656" width="19" height="19" fill="#8f86d6" opacity="0.21"/>
<rect x="550" y="656" width="19" height="19" fill="#8f86d6" opacity="0.27"/>
<rect x="572" y="656" width="19" height="19" fill="#8f86d6" opacity="0.26"/>
<rect x="594" y="656" width="19" height="19" fill="#8f86d6" opacity="0.20"/>
<rect x="616" y="656" width="19" height="19" fill="#8f86d6" opacity="0.37"/>
<rect x="258" y="142" width="53" height="541" fill="none" stroke="#e2584c" stroke-width="1.5"/>
<g font-family="ui-monospace, Menlo, Consolas, monospace" font-size="16" fill="#7d858f" letter-spacing="2"><text x="110" y="118">LLC CACHE-SET OCCUPANCY</text><text x="286" y="718" fill="#e2584c" text-anchor="middle">PRIME+PROBE PATTERN</text></g>
<path d="M720 350H1480" stroke="#222a34"/>
<polyline points="720,271 728,260 736,270 744,268 752,273 760,274 768,276 776,281 784,262 792,276 800,271 808,266 816,259 824,270 832,259 840,261 848,249 856,248 864,247 872,240 880,266 888,242 896,258 904,252 912,246 920,243 928,258 936,260 944,249 952,270 960,270 968,262 976,266 984,280 992,268 1000,260 1008,268 1016,271 1024,265 1032,285 1040,267 1048,267 1056,260 1064,265 1072,257 1080,253 1088,253 1096,254 1104,226 1112,250 1120,239 1128,244 1136,250 1144,186 1152,211 1160,242 1168,226 1176,181 1184,160 1192,171 1200,203 1208,246 1216,243 1224,240 1232,205 1240,178 1248,188 1256,206 1264,236 1272,250 1280,227 1288,213 1296,161 1304,155 1312,196 1320,256 1328,252 1336,240 1344,233 1352,237 1360,239 1368,237 1376,249 1384,249 1392,252 1400,245 1408,267 1416,249 1424,269 1432,261 1440,281 1448,270 1456,276 1464,270 1472,276 1480,266" fill="none" stroke="#6cd3e0" stroke-width="2"/>
<rect x="1140" y="170" width="180" height="180" fill="#e2584c" opacity="0.07"/><path d="M1140 170V350M1320 170V350" stroke="#e2584c" stroke-dasharray="4 6"/>
<g font-family="ui-monospace, Menlo, Consolas, monospace" font-size="16" fill="#7d858f" letter-spacing="2"><text x="720" y="146">PMU TELEMETRY · eBPF RING BUFFER</text><text x="1480" y="382" text-anchor="end">LLC MISS · BRANCH MISS · CTX SWITCH</text></g>
<rect x="720" y="470" width="210" height="64" fill="#0b1016" stroke="#2a323d"/><text font-family="ui-monospace, Menlo, Consolas, monospace" font-size="15" letter-spacing="2" fill="#ece6da" x="825" y="508" text-anchor="middle">SPATIAL CNN</text>
<path d="M825 534V580H1100" stroke="#2a323d" fill="none"/>
<rect x="960" y="470" width="210" height="64" fill="#0b1016" stroke="#2a323d"/><text font-family="ui-monospace, Menlo, Consolas, monospace" font-size="15" letter-spacing="2" fill="#ece6da" x="1065" y="508" text-anchor="middle">TEMPORAL BI-LSTM</text>
<path d="M1065 534V580H1100" stroke="#2a323d" fill="none"/>
<rect x="1200" y="470" width="210" height="64" fill="#0b1016" stroke="#2a323d"/><text font-family="ui-monospace, Menlo, Consolas, monospace" font-size="15" letter-spacing="2" fill="#ece6da" x="1305" y="508" text-anchor="middle">SYSTEM STATE</text>
<path d="M1305 534V580H1100" stroke="#2a323d" fill="none"/>
<rect x="960" y="580" width="280" height="64" fill="#0b1016" stroke="#6cd3e0"/><text font-family="ui-monospace, Menlo, Consolas, monospace" font-size="15" letter-spacing="2" fill="#6cd3e0" x="1100" y="618" text-anchor="middle">CROSS-MODAL ATTENTION</text>
<path d="M1100 644V690" stroke="#6cd3e0"/>
<rect x="880" y="690" width="440" height="110" fill="#e2584c" fill-opacity="0.06" stroke="#e2584c"/>
<g font-family="ui-monospace, Menlo, Consolas, monospace" font-size="16" letter-spacing="2"><text x="900" y="724" fill="#e2584c">DETECTED · CONTAINING PID</text><text x="900" y="756" fill="#ece6da">RDT CLOS → 1 LLC WAY</text><text x="900" y="784" fill="#ece6da">MEMORY BANDWIDTH → 10%</text></g>
<g font-family="ui-monospace, Menlo, Consolas, monospace" font-size="16" letter-spacing="2" fill="#7d858f"><text x="110" y="780">HOLDOUT ACCURACY</text><text x="110" y="812" fill="#ece6da">99.33%</text><text x="380" y="780">INFERENCE</text><text x="380" y="812" fill="#ece6da">1.29 MS</text></g>
<g font-family="ui-monospace, Menlo, Consolas, monospace" font-size="18" fill="#7d858f" letter-spacing="3"><text x="64" y="944">BUILD/02  SIDE-CHANNEL DETECTION &amp; CONTAINMENT</text><text x="1536" y="944" text-anchor="end">FIG. 03.2</text></g>
<path d="M64 908H1536" stroke="#1c242e"/>
</svg>